<?xml version="1.0" encoding="UTF-8"?>
<svg version="1.1" xmlns="http://www.w3.org/2000/svg" width="512" height="512">
<path d="M0 0 C14.85 0 29.7 0 45 0 C48.26134497 7.82722793 51.40453743 15.60367592 54.29296875 23.5625 C54.68077515 24.62419907 55.06858154 25.68589813 55.46813965 26.7797699 C56.7110701 30.18537756 57.94975357 33.59250508 59.1875 37 C60.04597823 39.36075904 60.90445805 41.7215175 61.76293945 44.08227539 C63.03136413 47.57151918 64.29919233 51.06097478 65.56535339 54.55104065 C67.75363154 60.58162323 69.95741033 66.60586503 72.1875 72.62109375 C87 112.82763372 87 112.82763372 87 125 C87.66 125 88.32 125 89 125 C89.09925781 123.94167969 89.19851563 122.88335937 89.30078125 121.79296875 C92.27330241 98.59317289 102.06642245 75.86825026 110 54 C110.23712582 53.34625523 110.47425163 52.69251045 110.71856308 52.01895523 C117.02868681 34.635521 123.48318424 17.30695332 130 0 C144.85 0 159.7 0 175 0 C175 54.45 175 108.9 175 165 C165.1 165 155.2 165 145 165 C145 123.09 145 81.18 145 38 C141.37 49.88 137.74 61.76 134 74 C127.6427717 92.50659793 127.6427717 92.50659793 125.3984375 98.68359375 C125.14178314 99.39019638 124.88512878 100.09679901 124.62069702 100.82481384 C119.05839803 116.10977007 113.4112892 131.36410348 107.73867798 146.6084137 C105.46321613 152.72892388 103.23168842 158.86285685 101 165 C92.42 165 83.84 165 75 165 C68.61950685 149.27134246 62.61153304 133.42871307 56.75 117.5 C56.28616106 116.24148911 55.82230389 114.98298493 55.35842896 113.7244873 C46.25515304 89.00910675 37.74603997 64.17462991 30 39 C30 80.58 30 122.16 30 165 C20.1 165 10.2 165 0 165 C0 110.55 0 56.1 0 0 Z " fill="#06B6D3" transform="translate(320,174)"/>
<path d="M0 0 C17.631553 14.57074091 27.04359162 33.13099768 30.3125 55.6875 C31.78195769 84.69815715 29.14750193 111.18060868 9.25 133.8125 C-3.7368305 147.87893137 -21.6998875 155.00891482 -40.6875 155.90625 C-61.4226817 156.53286263 -80.5844435 150.68431963 -96.375 136.9375 C-110.82539446 123.27974321 -119.8724468 103.3232297 -120.84863281 83.39868164 C-120.8864129 80.20384821 -120.91864136 77.00926722 -120.92773438 73.81420898 C-120.93732727 71.78651069 -120.96834804 69.75987816 -121 67.73242188 C-121.18368718 45.15281738 -114.24732109 23.68781877 -98.33203125 7.33984375 C-97.02298828 6.02693359 -97.02298828 6.02693359 -95.6875 4.6875 C-95.11386719 4.09066406 -94.54023437 3.49382812 -93.94921875 2.87890625 C-69.76868924 -20.17694747 -25.78215632 -19.20326126 0 0 Z M-77.375 27.3125 C-89.99363259 42.68322415 -92.04025487 62.69643243 -90.51757812 81.82177734 C-89.02698721 95.55697905 -83.60277463 109.46234745 -73.16796875 118.85546875 C-62.35174144 126.84414687 -51.46504452 129.55675321 -38.2109375 128.27734375 C-26.6721664 126.34568695 -18.126787 120.48660875 -10.875 111.421875 C-9.34344078 109.23174532 -7.98780634 107.02148834 -6.6875 104.6875 C-6.30980469 104.02621094 -5.93210937 103.36492187 -5.54296875 102.68359375 C3.4166856 84.99918236 2.09736843 61.72565793 -3.75390625 43.3359375 C-8.43871872 31.12140994 -16.48529277 21.85181199 -28.4375 16.3125 C-45.26063105 9.14709233 -65.03503326 14.32589745 -77.375 27.3125 Z " fill="#06B6D3" transform="translate(132.6875,185.3125)"/>
<path d="M0 0 C35.31 0 70.62 0 107 0 C107 8.58 107 17.16 107 26 C81.59 26 56.18 26 30 26 C30 41.51 30 57.02 30 73 C53.1 73 76.2 73 100 73 C100 81.25 100 89.5 100 98 C76.9 98 53.8 98 30 98 C30 120.11 30 142.22 30 165 C20.1 165 10.2 165 0 165 C0 110.55 0 56.1 0 0 Z " fill="#06B6D4" transform="translate(189,174)"/>
</svg>
